<?xml version="1.0" standalone="no"?>
<!DOCTYPE svg PUBLIC "-//W3C//DTD SVG 20010904//EN"
 "http://www.w3.org/TR/2001/REC-SVG-20010904/DTD/svg10.dtd">
<svg version="1.0" xmlns="http://www.w3.org/2000/svg"
 width="290.000000pt" height="290.000000pt" viewBox="0 0 290.000000 290.000000"
 preserveAspectRatio="xMidYMid meet">
<metadata>
Created by potrace 1.11, written by Peter Selinger 2001-2013
</metadata>
<g transform="translate(0.000000,290.000000) scale(0.100000,-0.100000)"
fill="#000000" stroke="none">
<path d="M1245 2885 c-444 -69 -806 -311 -1041 -695 -82 -134 -142 -295 -180
-480 -19 -91 -25 -325 -12 -435 27 -224 106 -438 233 -630 119 -180 347 -393
428 -400 78 -7 165 54 186 132 7 25 11 261 11 698 l0 660 276 0 275 0 -3 -695
c-4 -636 -5 -700 -22 -750 -28 -86 -77 -170 -128 -221 -26 -27 -45 -50 -40
-52 27 -13 309 -16 407 -5 638 78 1158 591 1249 1233 13 92 15 338 3 405 -2
14 -8 43 -12 65 -9 52 -44 184 -54 210 -5 11 -15 36 -21 55 -28 78 -125 252
-185 331 -108 144 -219 249 -365 346 -177 118 -357 187 -600 230 -62 11 -331
9 -405 -2z m52 -548 c101 -52 155 -136 155 -242 0 -115 -56 -202 -165 -254
-78 -38 -178 -42 -263 -10 -76 28 -157 107 -175 171 -19 67 -15 150 10 201 24
50 84 114 121 129 86 36 98 38 180 35 67 -3 96 -10 137 -30z m878 -962 l0
-960 -275 0 -275 0 0 904 c0 894 0 904 20 912 18 7 286 64 360 76 17 3 55 11
85 18 30 8 62 13 70 12 13 -2 15 -116 15 -962z"/>
</g>
</svg>
