<svg id="Layer_1" data-name="Layer 1" xmlns="http://www.w3.org/2000/svg" viewBox="0 0 477.35 60"><defs><style>.cls-1{fill:#0b0a08;}.cls-2{fill:#fdf8f3;}.cls-3{fill:#231f20;}</style></defs><title>jason-lengstorf-logo</title><g id="favicon.psd"><g id="Ellipse_1" data-name="Ellipse 1"><circle class="cls-1" cx="30" cy="30" r="30"/></g><path class="cls-2" d="M6,38.9l6.12-5.16c1.08,1.52,2.12,2.44,3.64,2.44s2.6-1.28,2.6-3.24V15.54h9.12V32.78c0,3.68-.84,6.2-2.92,8.28a11.18,11.18,0,0,1-8.08,3C11.12,44.1,8,41.94,6,38.9Z" transform="translate(0 0)"/><path class="cls-2" d="M30.4,15.54h9.36v20H52.93v8H30.4v-28Z" transform="translate(0 0)"/><path class="cls-3" d="M73.67,38.9l6.12-5.16c1.08,1.52,2.12,2.44,3.64,2.44S86,34.91,86,32.95V15.55h9.12V32.79c0,3.68-.84,6.2-2.92,8.28a11.18,11.18,0,0,1-8.08,3C78.79,44.1,75.71,41.94,73.67,38.9Z" transform="translate(0 0)"/><path class="cls-3" d="M106.83,15.35h9.28l11.8,28.2H117.75l-1.48-3.76h-9.8L105,43.54H95ZM114,33.15l-2.56-6.8-2.56,6.8H114Z" transform="translate(0 0)"/><path class="cls-3" d="M126.35,39.34l5-6a16,16,0,0,0,9.8,3.28c1.68,0,2.4-.44,2.4-1.2V35.39c0-.8-0.88-1.24-3.88-1.84-6.28-1.28-11.8-3.08-11.8-9V24.47c0-5.32,4.16-9.44,11.88-9.44,5.4,0,9.4,1.28,12.64,3.84l-4.56,6.32a14.68,14.68,0,0,0-8.4-2.76c-1.4,0-2,.48-2,1.16v0.08c0,0.76.76,1.24,3.72,1.8,7.16,1.32,12,3.4,12,9v0.08c0,5.88-4.84,9.48-12.36,9.48C135,44.06,129.91,42.46,126.35,39.34Z" transform="translate(0 0)"/><path class="cls-3" d="M154.59,29.63V29.55c0-8.12,6.68-14.6,15.32-14.6s15.24,6.4,15.24,14.52v0.08c0,8.12-6.68,14.6-15.32,14.6S154.59,37.75,154.59,29.63Zm21.12,0V29.55c0-3.32-2.28-6.32-5.88-6.32s-5.8,3-5.8,6.24v0.08c0,3.32,2.28,6.32,5.88,6.32S175.71,32.91,175.71,29.63Z" transform="translate(0 0)"/><path class="cls-3" d="M187.71,15.55h8.76l10,12.36V15.55h9.28v28h-8.32L197,30.63V43.54h-9.28v-28Z" transform="translate(0 0)"/><path class="cls-3" d="M229.07,15.55h9.36v20h13.16v8H229.07v-28Z" transform="translate(0 0)"/><path class="cls-3" d="M253.63,15.55h23.88v7.68H262.83v2.84h13.68v6.76H262.83v3h14.88v7.68H253.63v-28Z" transform="translate(0 0)"/><path class="cls-3" d="M280.23,15.55H289l10,12.36V15.55h9.28v28h-8.32l-10.4-12.92V43.54h-9.28v-28Z" transform="translate(0 0)"/><path class="cls-3" d="M310.79,29.63V29.55c0-8.36,6.6-14.6,15.44-14.6a17.35,17.35,0,0,1,11.72,4.24l-5.24,6.32a9.4,9.4,0,0,0-6.2-2.44,6.25,6.25,0,0,0-6.28,6.6v0.08a6.38,6.38,0,0,0,6.68,6.68,6.19,6.19,0,0,0,3.2-.64V33h-4.8V27h13.56v13a19.39,19.39,0,0,1-12.36,4.2C317.79,44.14,310.79,38.3,310.79,29.63Z" transform="translate(0 0)"/><path class="cls-3" d="M339.27,39.34l5-6a16,16,0,0,0,9.8,3.28c1.68,0,2.4-.44,2.4-1.2V35.39c0-.8-0.88-1.24-3.88-1.84-6.28-1.28-11.8-3.08-11.8-9V24.47c0-5.32,4.16-9.44,11.88-9.44,5.4,0,9.4,1.28,12.64,3.84l-4.56,6.32a14.69,14.69,0,0,0-8.4-2.76c-1.4,0-2,.48-2,1.16v0.08c0,0.76.76,1.24,3.72,1.8,7.16,1.32,12,3.4,12,9v0.08c0,5.88-4.84,9.48-12.36,9.48C348,44.06,342.83,42.46,339.27,39.34Z" transform="translate(0 0)"/><path class="cls-3" d="M374.31,23.47h-8.24V15.55h25.84v7.92h-8.24V43.54h-9.36V23.47Z" transform="translate(0 0)"/><path class="cls-3" d="M392.19,29.63V29.55c0-8.12,6.68-14.6,15.32-14.6s15.24,6.4,15.24,14.52v0.08c0,8.12-6.68,14.6-15.32,14.6S392.19,37.75,392.19,29.63Zm21.12,0V29.55c0-3.32-2.28-6.32-5.88-6.32s-5.8,3-5.8,6.24v0.08c0,3.32,2.28,6.32,5.88,6.32S413.31,32.91,413.31,29.63Z" transform="translate(0 0)"/><path class="cls-3" d="M425.31,15.55H439c5,0,8.12,1.24,10.08,3.2a8.79,8.79,0,0,1,2.56,6.64v0.08A9.05,9.05,0,0,1,446.11,34l6.52,9.52H441.95l-5.28-8h-2v8h-9.36v-28Zm13.4,13.32c2.24,0,3.6-1,3.6-2.72V26.07c0-1.8-1.4-2.68-3.56-2.68h-4.08v5.48h4Z" transform="translate(0 0)"/><path class="cls-3" d="M453.91,15.55h23.44v8H463.27v3.56h13.08v7.28H463.27v9.16h-9.36v-28Z" transform="translate(0 0)"/></g></svg>