<?xml version="1.0" encoding="UTF-8" standalone="no"?>
<svg width="30px" height="30px" viewBox="0 0 30 30" version="1.1" xmlns="http://www.w3.org/2000/svg" xmlns:xlink="http://www.w3.org/1999/xlink">
    <!-- Generator: Sketch 39.1 (31720) - http://www.bohemiancoding.com/sketch -->
    <title>icon-contact-dark</title>
    <desc>Created with Sketch.</desc>
    <defs></defs>
    <g id="Site-Design" stroke="none" stroke-width="1" fill="none" fill-rule="evenodd">
        <g id="icon-contact-dark" fill="#56453B">
            <path d="M15,30 C23.2842712,30 30,23.2842712 30,15 C30,6.71572875 23.2842712,0 15,0 C6.71572875,0 0,6.71572875 0,15 C0,23.2842712 6.71572875,30 15,30 Z M20.1428571,12.6428571 C20.1428571,13.5736654 19.8281281,14.4341478 19.1986607,15.2243304 C18.5691933,16.0145129 17.7103849,16.6389486 16.6222098,17.0976562 C15.5340347,17.5563639 14.3504528,17.7857143 13.0714286,17.7857143 C12.4955328,17.7857143 11.906253,17.7321434 11.3035714,17.625 C10.4732101,18.2142887 9.54241587,18.6428558 8.51116071,18.9107143 C8.27008808,18.9709824 7.98214453,19.0245533 7.64732143,19.0714286 L7.6171875,19.0714286 C7.54352642,19.0714286 7.47488871,19.0446431 7.41127232,18.9910714 C7.34765593,18.9374997 7.30915185,18.8671879 7.29575893,18.7801339 C7.28906247,18.7600445 7.28571429,18.7382814 7.28571429,18.7148438 C7.28571429,18.6914061 7.28738838,18.669643 7.29073661,18.6495536 C7.29408484,18.6294642 7.3007812,18.6093751 7.31082589,18.5892857 C7.32087059,18.5691963 7.32924104,18.5524554 7.3359375,18.5390625 C7.34263396,18.5256696 7.35435259,18.5072546 7.37109375,18.483817 C7.38783491,18.4603793 7.40122763,18.4436384 7.41127232,18.4335938 C7.42131701,18.4235491 7.43638383,18.4068082 7.45647321,18.3833705 C7.4765626,18.3599329 7.48995532,18.3448661 7.49665179,18.3381696 C7.5301341,18.2979909 7.60714225,18.2142864 7.72767857,18.0870536 C7.84821489,17.9598208 7.93526759,17.8610495 7.98883929,17.7907366 C8.04241098,17.7204238 8.11774505,17.6233265 8.21484375,17.499442 C8.31194245,17.3755574 8.39564697,17.2466525 8.46595982,17.1127232 C8.53627267,16.978794 8.60491038,16.831474 8.671875,16.6707589 C7.84151371,16.1886137 7.18861845,15.5959857 6.71316964,14.8928571 C6.23772084,14.1897286 6,13.4397361 6,12.6428571 C6,11.7120489 6.314729,10.8515665 6.94419643,10.0613839 C7.57366386,9.27120141 8.43247224,8.64676569 9.52064732,8.18805804 C10.6088224,7.72935039 11.7924043,7.5 13.0714286,7.5 C14.3504528,7.5 15.5340347,7.72935039 16.6222098,8.18805804 C17.7103849,8.64676569 18.5691933,9.27120141 19.1986607,10.0613839 C19.8281281,10.8515665 20.1428571,11.7120489 20.1428571,12.6428571 Z M24,15.2142857 C24,16.0178612 23.7622792,16.7695278 23.2868304,17.469308 C22.8113816,18.1690883 22.1584863,18.7600422 21.328125,19.2421875 C21.3950896,19.4029026 21.4637273,19.5502225 21.5340402,19.6841518 C21.604353,19.818081 21.6880576,19.946986 21.7851562,20.0708705 C21.8822549,20.1947551 21.957589,20.2918523 22.0111607,20.3621652 C22.0647324,20.432478 22.1517851,20.5312494 22.2723214,20.6584821 C22.3928577,20.7857149 22.4698659,20.8694194 22.5033482,20.9095982 C22.5100447,20.9162947 22.5234374,20.9313615 22.5435268,20.9547991 C22.5636162,20.9782367 22.578683,20.9949776 22.5887277,21.0050223 C22.5987724,21.015067 22.6121651,21.0318079 22.6289062,21.0552455 C22.6456474,21.0786832 22.657366,21.0970981 22.6640625,21.1104911 C22.670759,21.123884 22.6791294,21.1406249 22.6891741,21.1607143 C22.6992188,21.1808037 22.7059152,21.2008928 22.7092634,21.2209821 C22.7126116,21.2410715 22.7142857,21.2628347 22.7142857,21.2862723 C22.7142857,21.3097099 22.7109375,21.3314731 22.7042411,21.3515625 C22.6841517,21.445313 22.6406253,21.5189729 22.5736607,21.5725446 C22.5066961,21.6261163 22.4330361,21.6495536 22.3526786,21.6428571 C22.0178555,21.5959819 21.7299119,21.542411 21.4888393,21.4821429 C20.4575841,21.2142844 19.5267899,20.7857172 18.6964286,20.1964286 C18.093747,20.303572 17.5044672,20.3571429 16.9285714,20.3571429 C15.1138302,20.3571429 13.5334889,19.915183 12.1875,19.03125 C12.5758948,19.0580358 12.8705347,19.0714286 13.0714286,19.0714286 C14.149559,19.0714286 15.1841468,18.9207604 16.1752232,18.6194196 C17.1662996,18.3180789 18.0502193,17.8861635 18.8270089,17.3236607 C19.6640667,16.7075862 20.3069174,15.9977719 20.7555804,15.1941964 C21.2042433,14.390621 21.4285714,13.5401831 21.4285714,12.6428571 C21.4285714,12.1272296 21.3515633,11.6183061 21.1975446,11.1160714 C22.0613882,11.5915202 22.7444171,12.1874964 23.2466518,12.9040179 C23.7488864,13.6205393 24,14.3906209 24,15.2142857 Z" id="Combined-Shape"></path>
        </g>
    </g>
</svg>