<?xml version="1.0" encoding="UTF-8" standalone="no"?>
<svg width="30px" height="30px" viewBox="0 0 30 30" version="1.1" xmlns="http://www.w3.org/2000/svg" xmlns:xlink="http://www.w3.org/1999/xlink">
    <!-- Generator: Sketch 39.1 (31720) - http://www.bohemiancoding.com/sketch -->
    <title>icon-blog-light</title>
    <desc>Created with Sketch.</desc>
    <defs></defs>
    <g id="Site-Design" stroke="none" stroke-width="1" fill="none" fill-rule="evenodd">
        <g id="icon-blog-light" fill="#FFFDFF">
            <path d="M15,30 C23.2842712,30 30,23.2842712 30,15 C30,6.71572875 23.2842712,0 15,0 C6.71572875,0 0,6.71572875 0,15 C0,23.2842712 6.71572875,30 15,30 Z M20.2633929,7.85714286 C20.4174115,7.85714286 20.5647314,7.88727648 20.7053571,7.94754464 C20.9263404,8.03459865 21.1021199,8.17187406 21.2327009,8.359375 C21.3632819,8.54687594 21.4285714,8.75446315 21.4285714,8.98214286 L21.4285714,21.9296875 C21.4285714,22.1573672 21.3632819,22.3649544 21.2327009,22.5524554 C21.1021199,22.7399563 20.9263404,22.8772317 20.7053571,22.9642857 C20.5781244,23.0178574 20.4308044,23.0446429 20.2633929,23.0446429 C19.9419627,23.0446429 19.6640637,22.9375011 19.4296875,22.7232143 L15,18.4642857 L10.5703125,22.7232143 C10.3292399,22.9441975 10.0513409,23.0546875 9.73660714,23.0546875 C9.58258852,23.0546875 9.43526856,23.0245539 9.29464286,22.9642857 C9.07365961,22.8772317 8.89788012,22.7399563 8.76729911,22.5524554 C8.6367181,22.3649544 8.57142857,22.1573672 8.57142857,21.9296875 L8.57142857,8.98214286 C8.57142857,8.75446315 8.6367181,8.54687594 8.76729911,8.359375 C8.89788012,8.17187406 9.07365961,8.03459865 9.29464286,7.94754464 C9.43526856,7.88727648 9.58258852,7.85714286 9.73660714,7.85714286 L20.2633929,7.85714286 Z" id="Combined-Shape"></path>
        </g>
    </g>
</svg>