<svg xmlns="http://www.w3.org/2000/svg" viewBox="0 0 30 30"><g fill="#FFFCFF" fill-rule="evenodd"><path d="M15 30c8.284 0 15-6.716 15-15 0-8.284-6.716-15-15-15C6.716 0 0 6.716 0 15c0 8.284 6.716 15 15 15zm5.5-18.188c0 1.11-.37 2.07-1.106 2.88-.323.35-.59.662-.8.934-.212.272-.425.614-.64 1.026-.215.412-.336.797-.365 1.155.33.2.5.494.5.88 0 .265-.09.495-.27.688.18.193.27.423.27.688 0 .372-.16.662-.49.87.09.164.14.333.14.505 0 .33-.12.583-.34.762-.23.18-.5.27-.83.27-.15.314-.36.565-.65.75-.29.187-.6.28-.94.28-.337 0-.648-.093-.935-.28-.284-.185-.5-.436-.64-.75-.33 0-.608-.09-.834-.27-.223-.18-.336-.433-.336-.762 0-.172.047-.34.14-.505-.323-.208-.484-.498-.484-.87 0-.265.09-.495.27-.688-.18-.193-.27-.423-.27-.688 0-.386.17-.68.505-.88-.025-.358-.15-.743-.36-1.155-.214-.412-.427-.754-.64-1.026-.21-.272-.476-.584-.8-.935-.736-.8-1.105-1.76-1.105-2.87 0-.71.16-1.37.48-1.98.32-.61.74-1.12 1.257-1.52.52-.4 1.11-.72 1.766-.95C13.656 7.118 14.32 7 15 7c.68 0 1.348.116 2.003.35.656.232 1.243.55 1.762.955.52.405.938.913 1.257 1.526.32.62.478 1.28.478 1.99z"/><path d="M19.125 11.813c0-.516-.124-.996-.37-1.44-.248-.444-.57-.807-.967-1.09-.398-.283-.838-.505-1.322-.666-.483-.16-.972-.242-1.466-.242s-.983.08-1.466.242c-.484.16-.924.383-1.322.666-.397.283-.72.646-.966 1.09-.247.444-.37.924-.37 1.44 0 .723.242 1.367.73 1.933.07.08.18.197.327.355l.328.36c.92 1.1 1.43 2.17 1.52 3.2h2.45c.1-1.03.6-2.1 1.52-3.2.07-.08.18-.19.33-.35l.33-.35c.49-.56.73-1.21.73-1.93zm-1.72 0c0 .093-.033.173-.1.24-.07.07-.15.103-.242.103-.094 0-.174-.034-.242-.102-.06-.068-.1-.148-.1-.242 0-.33-.19-.583-.58-.762-.38-.18-.76-.27-1.14-.27-.09 0-.17-.033-.24-.1-.07-.07-.1-.15-.1-.242 0-.094.04-.174.1-.242.07-.068.15-.102.24-.102.36 0 .72.057 1.07.172.36.114.67.308.94.58.27.272.41.594.41.966z"/></g></svg>