<?xml version="1.0" encoding="UTF-8" standalone="no"?>
<svg width="30px" height="30px" viewBox="0 0 30 30" version="1.1" xmlns="http://www.w3.org/2000/svg" xmlns:xlink="http://www.w3.org/1999/xlink">
    <!-- Generator: Sketch 39.1 (31720) - http://www.bohemiancoding.com/sketch -->
    <title>icon-hire-me-light</title>
    <desc>Created with Sketch.</desc>
    <defs></defs>
    <g id="Site-Design" stroke="none" stroke-width="1" fill="none" fill-rule="evenodd">
        <g id="icon-hire-me-light" fill="#FFFDFF">
            <path d="M15,30 C23.2842712,30 30,23.2842712 30,15 C30,6.71572875 23.2842712,0 15,0 C6.71572875,0 0,6.71572875 0,15 C0,23.2842712 6.71572875,30 15,30 Z M20.5,11.8125 C20.5,12.9225316 20.1311886,13.8821574 19.3935547,14.6914062 C19.0712875,15.0423195 18.8045258,15.3538398 18.5932617,15.6259766 C18.3819976,15.8981133 18.1689464,16.2400696 17.9541016,16.6518555 C17.7392567,17.0636414 17.6175132,17.4485659 17.5888672,17.8066406 C17.9254574,18.0071625 18.09375,18.3007793 18.09375,18.6875 C18.09375,18.9524753 18.0042327,19.1816397 17.8251953,19.375 C18.0042327,19.5683603 18.09375,19.7975247 18.09375,20.0625 C18.09375,20.4348977 17.9326188,20.7249339 17.6103516,20.9326172 C17.703451,21.0973316 17.75,21.2656241 17.75,21.4375 C17.75,21.7669287 17.6372082,22.021158 17.4116211,22.2001953 C17.186034,22.3792327 16.9085303,22.46875 16.5791016,22.46875 C16.4358717,22.7838557 16.2210301,23.0345043 15.9345703,23.2207031 C15.6481105,23.406902 15.3365902,23.5 15,23.5 C14.6634098,23.5 14.3518895,23.406902 14.0654297,23.2207031 C13.7789699,23.0345043 13.5641283,22.7838557 13.4208984,22.46875 C13.0914697,22.46875 12.813966,22.3792327 12.5883789,22.2001953 C12.3627918,22.021158 12.25,21.7669287 12.25,21.4375 C12.25,21.2656241 12.296549,21.0973316 12.3896484,20.9326172 C12.0673812,20.7249339 11.90625,20.4348977 11.90625,20.0625 C11.90625,19.7975247 11.9957673,19.5683603 12.1748047,19.375 C11.9957673,19.1816397 11.90625,18.9524753 11.90625,18.6875 C11.90625,18.3007793 12.0745426,18.0071625 12.4111328,17.8066406 C12.3824868,17.4485659 12.2607433,17.0636414 12.0458984,16.6518555 C11.8310536,16.2400696 11.6180024,15.8981133 11.4067383,15.6259766 C11.1954742,15.3538398 10.9287125,15.0423195 10.6064453,14.6914062 C9.86881142,13.8821574 9.5,12.9225316 9.5,11.8125 C9.5,11.1035121 9.65934085,10.4428742 9.97802734,9.83056641 C10.2967138,9.21825866 10.715655,8.7098002 11.2348633,8.30517578 C11.7540716,7.90055136 12.3413053,7.58186965 12.996582,7.34912109 C13.6518587,7.11637253 14.3196581,7 15,7 C15.6803419,7 16.3481413,7.11637253 17.003418,7.34912109 C17.6586947,7.58186965 18.2459284,7.90055136 18.7651367,8.30517578 C19.284345,8.7098002 19.7032862,9.21825866 20.0219727,9.83056641 C20.3406591,10.4428742 20.5,11.1035121 20.5,11.8125 Z" id="Combined-Shape"></path>
            <path d="M19.125,11.8125 C19.125,11.2968724 19.0014661,10.8170595 18.7543945,10.3730469 C18.507323,9.92903424 18.1850606,9.56559386 17.7875977,9.28271484 C17.3901347,8.99983583 16.9497094,8.77783284 16.4663086,8.61669922 C15.9829077,8.4555656 15.4941431,8.375 15,8.375 C14.5058569,8.375 14.0170923,8.4555656 13.5336914,8.61669922 C13.0502906,8.77783284 12.6098653,8.99983583 12.2124023,9.28271484 C11.8149394,9.56559386 11.492677,9.92903424 11.2456055,10.3730469 C10.9985339,10.8170595 10.875,11.2968724 10.875,11.8125 C10.875,12.5358109 11.1184871,13.1803357 11.6054688,13.7460938 C11.6770837,13.8248702 11.7862948,13.9430331 11.9331055,14.1005859 C12.0799161,14.2581388 12.1891272,14.3763017 12.2607422,14.4550781 C13.1774134,15.5507867 13.6822912,16.6178333 13.7753906,17.65625 L16.2246094,17.65625 C16.3177088,16.6178333 16.8225866,15.5507867 17.7392578,14.4550781 C17.8108728,14.3763017 17.9200839,14.2581388 18.0668945,14.1005859 C18.2137052,13.9430331 18.3229163,13.8248702 18.3945312,13.7460938 C18.8815129,13.1803357 19.125,12.5358109 19.125,11.8125 Z M17.40625,11.8125 C17.40625,11.9055994 17.3722334,11.986165 17.3041992,12.0541992 C17.236165,12.1222334 17.1555994,12.15625 17.0625,12.15625 C16.9694006,12.15625 16.888835,12.1222334 16.8208008,12.0541992 C16.7527666,11.986165 16.71875,11.9055994 16.71875,11.8125 C16.71875,11.4830713 16.5253926,11.228842 16.1386719,11.0498047 C15.7519512,10.8707673 15.3723977,10.78125 15,10.78125 C14.9069006,10.78125 14.826335,10.7472334 14.7583008,10.6791992 C14.6902666,10.611165 14.65625,10.5305994 14.65625,10.4375 C14.65625,10.3444006 14.6902666,10.263835 14.7583008,10.1958008 C14.826335,10.1277666 14.9069006,10.09375 15,10.09375 C15.3580747,10.09375 15.7143537,10.1510411 16.0688477,10.265625 C16.4233416,10.3802089 16.7348619,10.5735663 17.003418,10.8457031 C17.271974,11.1178399 17.40625,11.4401023 17.40625,11.8125 Z" id="Combined-Shape"></path>
        </g>
    </g>
</svg>