<svg xmlns="http://www.w3.org/2000/svg" viewBox="0 0 30 30"><path fill="#FFFCFF" fill-rule="evenodd" d="M15 30c8.28 0 15-6.72 15-15 0-8.28-6.72-15-15-15C6.72 0 0 6.72 0 15c0 8.28 6.72 15 15 15zm0-6.2c-.17 0-.32-.07-.44-.2L8.3 17.56 8 17.3c-.1-.12-.3-.34-.54-.66-.26-.32-.5-.65-.7-.98-.2-.34-.37-.74-.52-1.22-.16-.47-.24-.93-.24-1.38 0-1.48.43-2.63 1.28-3.46.85-.83 2.02-1.24 3.52-1.24.42 0 .84.07 1.27.2.43.16.84.35 1.2.6.38.24.7.47.97.68.26.22.52.45.76.7.24-.25.5-.48.76-.7.27-.2.6-.44.96-.68.37-.25.78-.44 1.2-.6.44-.13.86-.2 1.28-.2 1.5 0 2.67.4 3.52 1.24.85.83 1.28 1.98 1.28 3.46s-.77 2.98-2.3 4.52l-6.26 6.02c-.12.13-.27.2-.44.2z"/></svg>