<?xml version="1.0" encoding="UTF-8" standalone="no"?>
<svg width="30px" height="30px" viewBox="0 0 30 30" version="1.1" xmlns="http://www.w3.org/2000/svg" xmlns:xlink="http://www.w3.org/1999/xlink">
    <!-- Generator: Sketch 39.1 (31720) - http://www.bohemiancoding.com/sketch -->
    <title>icon-travel-light</title>
    <desc>Created with Sketch.</desc>
    <defs></defs>
    <g id="Site-Design" stroke="none" stroke-width="1" fill="none" fill-rule="evenodd">
        <g id="icon-travel-light" fill="#FFFDFF">
            <path d="M15,30 C23.2842712,30 30,23.2842712 30,15 C30,6.71572875 23.2842712,0 15,0 C6.71572875,0 0,6.71572875 0,15 C0,23.2842712 6.71572875,30 15,30 Z M22.6136613,7.30754702 C22.9678069,7.7260827 23.0160987,8.32168222 22.7585383,9.09436347 C22.5009779,9.86704472 22.0663512,10.559228 21.4546452,11.1709339 L19.5108787,13.1147005 L21.4425721,21.517567 C21.482816,21.6704935 21.4345241,21.8032961 21.2976951,21.9159788 L19.7523404,23.0749949 C19.695999,23.1232874 19.6195369,23.1474334 19.5229518,23.1474334 C19.4907567,23.1474334 19.4625865,23.1434091 19.4384402,23.1353603 C19.3177087,23.111214 19.233198,23.0468249 19.1849054,22.9421909 L15.816515,16.8090642 L12.6895862,19.935993 L13.3294596,22.2781713 C13.3697034,22.4150003 13.3375089,22.5397542 13.232875,22.6524369 L12.0738589,23.811453 C12.00142,23.8838919 11.9088606,23.9201108 11.7961779,23.9201108 L11.7720318,23.9201108 C11.6513003,23.9040132 11.5547166,23.8516971 11.4822778,23.7631607 L9.20046486,20.7207435 L6.15804766,18.4389306 C6.06951127,18.3825892 6.0171951,18.2900298 6.00109757,18.1612496 C5.99304881,18.0566157 6.0292677,17.9560077 6.10975533,17.8594225 L7.2687714,16.6883334 C7.34121027,16.6158945 7.43376966,16.5796756 7.54645234,16.5796756 C7.59474492,16.5796756 7.62693948,16.5836999 7.64303701,16.5917487 L9.98521533,17.2316222 L13.1121441,14.1046934 L6.97901738,10.7363029 C6.8663347,10.6719128 6.79792124,10.5753291 6.77377495,10.4465489 C6.75767743,10.3177687 6.79389632,10.209112 6.88243271,10.1205756 L8.42778748,8.57522085 C8.54047016,8.47058694 8.66119979,8.43839237 8.78998,8.47863618 L16.8185809,10.3982566 L18.7502744,8.4665631 C19.3619804,7.85485711 20.0541636,7.42023043 20.8268449,7.16267001 C21.5995261,6.9051096 22.1951256,6.95340145 22.6136613,7.30754702 Z" id="Combined-Shape"></path>
        </g>
    </g>
</svg>