<?xml version="1.0" encoding="UTF-8" standalone="no"?>
<svg width="30px" height="30px" viewBox="0 0 30 30" version="1.1" xmlns="http://www.w3.org/2000/svg" xmlns:xlink="http://www.w3.org/1999/xlink">
    <!-- Generator: Sketch 39.1 (31720) - http://www.bohemiancoding.com/sketch -->
    <title>icon-about-dark</title>
    <desc>Created with Sketch.</desc>
    <defs></defs>
    <g id="Site-Design" stroke="none" stroke-width="1" fill="none" fill-rule="evenodd">
        <g id="icon-about-dark" fill="#56453B">
            <path d="M15,30 C23.2842712,30 30,23.2842712 30,15 C30,6.71572875 23.2842712,0 15,0 C6.71572875,0 0,6.71572875 0,15 C0,23.2842712 6.71572875,30 15,30 Z M23.3571429,12.5703125 C23.3571429,12.7176347 23.2700902,12.8783473 23.0959821,13.0524554 L19.4497768,16.6082589 L20.3136161,21.6305804 C20.3203125,21.6774556 20.3236607,21.7444192 20.3236607,21.8314732 C20.3236607,21.9720989 20.2885048,22.0909593 20.218192,22.188058 C20.1478791,22.2851567 20.0457596,22.3337054 19.9118304,22.3337054 C19.7845976,22.3337054 19.6506703,22.2935272 19.5100446,22.2131696 L15,19.8426339 L10.4899554,22.2131696 C10.3426332,22.2935272 10.208706,22.3337054 10.0881696,22.3337054 C9.94754394,22.3337054 9.84207624,22.2851567 9.77176339,22.188058 C9.70145054,22.0909593 9.66629464,21.9720989 9.66629464,21.8314732 C9.66629464,21.7912944 9.672991,21.7243308 9.68638393,21.6305804 L10.5502232,16.6082589 L6.89397321,13.0524554 C6.72656166,12.8716509 6.64285714,12.7109382 6.64285714,12.5703125 C6.64285714,12.3225434 6.83035527,12.1685271 7.20535714,12.1082589 L12.2477679,11.375 L14.5078125,6.8046875 C14.6350453,6.53013256 14.7991061,6.39285714 15,6.39285714 C15.2008939,6.39285714 15.3649547,6.53013256 15.4921875,6.8046875 L17.7522321,11.375 L22.7946429,12.1082589 C23.1696447,12.1685271 23.3571429,12.3225434 23.3571429,12.5703125 Z" id="Combined-Shape"></path>
        </g>
    </g>
</svg>