<?xml version="1.0" encoding="UTF-8" standalone="no"?>
<svg width="30px" height="30px" viewBox="0 0 30 30" version="1.1" xmlns="http://www.w3.org/2000/svg" xmlns:xlink="http://www.w3.org/1999/xlink">
    <!-- Generator: Sketch 3.8.3 (29802) - http://www.bohemiancoding.com/sketch -->
    <title>icon-efficiency</title>
    <desc>Created with Sketch.</desc>
    <defs></defs>
    <g id="Site-Design" stroke="none" stroke-width="1" fill="none" fill-rule="evenodd">
        <g id="icon-efficiency" fill="#FFFFFF">
            <path d="M15,30 C23.2842712,30 30,23.2842712 30,15 C30,6.71572875 23.2842712,0 15,0 C6.71572875,0 0,6.71572875 0,15 C0,23.2842712 6.71572875,30 15,30 Z M20.8301384,10.7644231 C20.9743699,10.9246803 21.0024145,11.1009606 20.914273,11.2932692 L14.4238884,25.1995192 C14.3197212,25.3998407 14.1514536,25.5 13.9190807,25.5 C13.8870293,25.5 13.8309401,25.4919873 13.7508115,25.4759615 C13.6145928,25.4358972 13.5124304,25.3597762 13.4443211,25.2475962 C13.3762118,25.1354161 13.3581831,25.015225 13.3902345,24.8870192 L15.758023,15.1754808 L10.8782153,16.3894231 C10.8461639,16.3974359 10.7980874,16.4014423 10.7339845,16.4014423 C10.589753,16.4014423 10.4655556,16.3573722 10.3613884,16.2692308 C10.2171569,16.1490379 10.1650741,15.9927894 10.2051384,15.8004808 L12.6210038,5.88461538 C12.6530552,5.77243534 12.7171571,5.68028882 12.8133115,5.60817308 C12.9094658,5.53605733 13.0216442,5.5 13.1498499,5.5 L17.0921576,5.5 C17.244402,5.5 17.3726058,5.55007963 17.476773,5.65024038 C17.5809402,5.75040114 17.633023,5.86858906 17.633023,6.00480769 C17.633023,6.06891058 17.6129911,6.14102524 17.5729268,6.22115385 L15.5176384,11.7860577 L20.2772538,10.6081731 C20.3413567,10.5921474 20.3894331,10.5841346 20.4214845,10.5841346 C20.5737289,10.5841346 20.7099455,10.6442302 20.8301384,10.7644231 Z" id="Combined-Shape"></path>
        </g>
    </g>
</svg>