<?xml version="1.0" encoding="UTF-8" standalone="no"?>
<svg width="30px" height="30px" viewBox="0 0 30 30" version="1.1" xmlns="http://www.w3.org/2000/svg" xmlns:xlink="http://www.w3.org/1999/xlink">
    <!-- Generator: Sketch 39.1 (31720) - http://www.bohemiancoding.com/sketch -->
    <title>icon-post-hustle-dark</title>
    <desc>Created with Sketch.</desc>
    <defs></defs>
    <g id="Site-Design" stroke="none" stroke-width="1" fill="none" fill-rule="evenodd">
        <g id="icon-post-hustle-dark" fill="#56453B">
            <path d="M15,30 C23.2842712,30 30,23.2842712 30,15 C30,6.71572875 23.2842712,0 15,0 C6.71572875,0 0,6.71572875 0,15 C0,23.2842712 6.71572875,30 15,30 Z M15,23.7857143 C14.825892,23.7857143 14.678572,23.725447 14.5580357,23.6049107 L8.29017857,17.5580357 C8.22321395,17.504464 8.13113898,17.4174113 8.01395089,17.296875 C7.89676281,17.1763387 7.71093877,16.9570328 7.45647321,16.6389509 C7.20200766,16.3208689 6.97433136,15.9944213 6.7734375,15.6595982 C6.57254364,15.3247751 6.39341597,14.9196452 6.23604911,14.4441964 C6.07868225,13.9687476 6,13.5066987 6,13.0580357 C6,11.5848141 6.42521896,10.4330399 7.27566964,9.60267857 C8.12612032,8.77231728 9.30133179,8.35714286 10.8013393,8.35714286 C11.2165199,8.35714286 11.6400648,8.42912874 12.0719866,8.57310268 C12.5039084,8.71707661 12.9056901,8.9112711 13.2773438,9.15569196 C13.6489974,9.40011283 13.9687487,9.62946321 14.2366071,9.84375 C14.5044656,10.0580368 14.7589274,10.2857131 15,10.5267857 C15.2410726,10.2857131 15.4955344,10.0580368 15.7633929,9.84375 C16.0312513,9.62946321 16.3510026,9.40011283 16.7226562,9.15569196 C17.0943099,8.9112711 17.4960916,8.71707661 17.9280134,8.57310268 C18.3599352,8.42912874 18.7834801,8.35714286 19.1986607,8.35714286 C20.6986682,8.35714286 21.8738797,8.77231728 22.7243304,9.60267857 C23.574781,10.4330399 24,11.5848141 24,13.0580357 C24,14.5379538 23.2332666,16.0446352 21.6997768,17.578125 L15.4419643,23.6049107 C15.321428,23.725447 15.174108,23.7857143 15,23.7857143 Z" id="Combined-Shape"></path>
        </g>
    </g>
</svg>