<svg xmlns="http://www.w3.org/2000/svg" viewBox="0 0 30 30"><path fill="#FFFCFF" fill-rule="evenodd" d="M15 30c8.28 0 15-6.72 15-15 0-8.28-6.72-15-15-15C6.72 0 0 6.72 0 15c0 8.28 6.72 15 15 15zm8.36-17.43c0 .15-.1.3-.26.48l-3.65 3.56.86 5.03c.02.05.02.1.02.2 0 .14-.03.26-.1.36-.07.1-.17.13-.3.13-.14 0-.27-.04-.4-.12L15 19.85l-4.5 2.37c-.16.1-.3.13-.4.13-.15 0-.26-.04-.33-.14s-.1-.23-.1-.37l.02-.2.85-5.02-3.66-3.55c-.17-.18-.26-.34-.26-.48 0-.25.2-.4.57-.46l5.05-.72L14.5 6.8c.14-.27.3-.4.5-.4s.36.13.5.4l2.25 4.58 5.04.73c.37.07.56.22.56.47z"/></svg>