<svg xmlns="http://www.w3.org/2000/svg" xmlns:xlink="http://www.w3.org/1999/xlink" width="100" height="120" version="1.1" viewBox="0 0 100 120"><title>jason-lengstorf-beard</title><desc>Created using Figma</desc><g id="Canvas" transform="translate(-950 -75)"><g id="jason-lengstorf-beard"><g id="Vector"><use fill="#1E0D2B" transform="translate(950 75)" xlink:href="#path0_fill"/></g></g></g><defs><path id="path0_fill" fill-rule="evenodd" d="M 0.863178 17.5607C 0.863178 23.2975 -0.381654 28.9717 0.863178 36.2332C 2.41922 45.3101 8.38405 80.5803 12.2741 88.6199C 16.1642 96.6594 24.4631 120 52.9905 120C 73.7414 120 83.3333 101.587 88.0014 90.9539C 92.6695 80.321 98.6343 55.6837 99.6717 36.2332C 100.709 16.7827 98.8937 0.962991 98.1157 0.184972C 97.3376 -0.593048 96.0409 1.22233 96.0409 3.03771L 96.0409 6.66847C 91.5457 6.75491 80.7917 7.13528 73.7377 7.96517C 64.9202 9.00252 57.6586 11.8553 55.8433 12.8926C 54.0279 13.93 52.9905 13.6706 50.3971 13.6706C 47.8037 13.6706 46.507 14.4487 43.9136 13.6706C 41.3202 12.8926 33.7994 11.3366 29.6499 11.3366C 25.5005 11.3366 15.9049 12.1146 10.9774 12.8926C 6.04999 13.6706 4.75329 13.6706 4.23461 13.6706C 3.71593 13.6706 3.71593 9.5212 1.90055 8.2245C 0.0851743 6.92781 -0.174166 7.18715 0.0851742 9.26186C 0.344514 11.3366 0.863178 14.1893 0.863178 17.5607ZM 11.7555 32.6025C 9.4214 30.0091 8.90272 24.8223 8.90272 19.8948C 8.90272 16.264 13.3115 15.2267 20.8324 14.1893C 28.3532 13.152 35.3554 14.1893 39.5048 15.2267C 43.6543 16.264 46.2477 19.3761 43.1356 26.3783C 40.0235 33.3805 38.7268 35.4552 27.8345 36.2332C 16.9423 37.0112 14.0895 35.1959 11.7555 32.6025ZM 73.7377 10.2992C 63.6235 11.3366 58.9553 13.6706 57.1399 16.7827C 56.6213 18.3388 56.6213 20.6728 59.7333 26.3783C 62.8454 32.0838 65.1795 33.1211 72.9597 32.8618C 80.7399 32.6025 86.964 31.0464 89.5574 28.7124C 92.1508 26.3783 93.4475 17.8201 92.1508 13.6706C 90.8541 9.5212 83.8519 9.26186 73.7377 10.2992ZM 98.1157 26.3783C 98.1157 21.6064 97.4241 16.264 97.0783 14.1893C 96.7325 14.1893 95.8853 14.5005 95.2629 15.7454C 94.4849 17.3014 94.4849 22.4882 93.1882 26.3783C 91.8915 30.2684 88.7794 31.8244 82.2959 33.3805C 75.8124 34.9365 69.5882 34.9365 65.1795 34.1585C 60.7707 33.3805 56.8806 26.897 55.5839 23.5256C 54.2872 20.1541 53.7685 18.5981 50.3971 18.8574C 47.0257 19.1168 46.507 20.9322 46.507 22.4882C 46.507 24.0442 44.4323 29.7497 42.6169 32.6025C 40.8015 35.4552 37.1708 38.0486 25.7598 38.0486C 14.3489 38.0486 11.7555 36.2332 10.1994 34.1585C 8.64338 32.0838 7.34668 26.3783 6.30932 23.5256C 5.47943 21.2434 3.37013 20.8457 2.41922 20.9322L 2.41922 26.897C 2.41922 30.2684 2.41922 32.8618 4.23461 37.5299C 6.05001 42.198 6.30932 47.1526 8.1247 52.5716C 9.94007 57.9907 13.0522 57.7584 16.4236 60.0925C 19.795 62.4265 20.8324 66.8353 24.4631 66.0573C 26.6445 65.5899 23.9444 61.6485 26.2785 55.943C 28.6125 50.2376 39.5048 47.9035 43.9136 47.1526C 48.3224 46.4016 49.6191 47.9035 52.2125 47.9035C 54.8059 47.9035 55.8433 46.3475 57.918 45.8288C 59.9927 45.3101 68.2915 44.7914 75.2937 46.8661C 82.2959 48.9409 80.6988 55.9094 80.2212 58.5364C 79.7025 61.3892 79.7481 63.2758 80.7399 62.9452C 83.0739 62.1672 84.7914 61.3616 86.964 57.4991C 89.2981 53.3496 91.1135 51.5343 94.4849 46.8661C 97.8563 42.198 98.1157 32.3431 98.1157 26.3783ZM 58.4366 58.5364C 56.8806 58.0178 54.8059 56.2024 53.2498 56.2024C 50.9158 56.2024 48.3224 60.3518 43.6543 59.8331C 38.9861 59.3145 34.318 59.3145 33.2807 61.3892C 32.2433 63.4639 34.318 70.2067 36.6521 72.0221C 38.9861 73.8375 43.9136 69.6881 47.0257 70.4661C 50.1377 71.2441 51.1751 70.2067 53.2498 70.2067C 55.3246 70.2067 57.1399 71.2441 61.5487 69.6881C 65.9575 68.132 66.7355 71.7628 69.0696 70.2067C 71.4036 68.6507 71.9223 62.1672 72.9597 60.3518C 73.997 58.5364 73.997 57.4991 71.9223 56.9804C 69.8476 56.4617 59.9927 59.0551 58.4366 58.5364Z"/></defs></svg>