<svg xmlns="http://www.w3.org/2000/svg" viewBox="0 0 43 44" xmlns:xlink="http://www.w3.org/1999/xlink"><desc>Created using Figma</desc><use fill="#C800EC" xlink:href="#a" transform="matrix(1 0 0 -1 -8.48 44)"/><defs><path id="a" fill-rule="evenodd" d="M21.67 50.32c-7.76-1.2-14.1-5.43-18.2-12.14C2.05 35.84 1 33.02.34 29.78 0 28.2-.1 24.12.14 22.2c.45-3.9 1.83-7.65 4.05-11 2.04-3.15 6.03-6.87 7.44-7 1.36-.1 2.9.95 3.25 2.32.12.43.2 4.56.2 12.2v11.53h9.62l-.05-12.15C24.6 7 24.57 5.87 24.27 5c-.47-1.5-1.33-2.97-2.22-3.87-.46-.46-.8-.86-.7-.9.47-.22 5.4-.27 7.1-.08C39.6 1.5 48.7 10.48 50.3 21.7c.23 1.6.26 5.9.05 7.07l-.12.68-.1.46c-.15.9-.76 3.2-.93 3.7-.08.2-.25.63-.36.96-.5 1.37-2.18 4.4-3.23 5.8-1.85 2.5-3.8 4.34-6.34 6.04-3.1 2.05-6.24 3.26-10.5 4-1.07.2-5.77.16-7.06-.03zm.9-9.57c1.77-.9 2.7-2.38 2.7-4.23 0-2-.96-3.53-2.87-4.44-1.36-.67-3.1-.73-4.6-.18-1.32.5-2.74 1.87-3.05 3-.33 1.16-.26 2.6.17 3.5.42.88 1.47 2 2.12 2.26 1.5.63 1.7.66 3.14.6 1.17-.04 1.68-.16 2.4-.5zm15.35-33.6v16.8c0 14.77-.04 16.76-.26 16.8-.14 0-.7-.07-1.23-.2-.52-.14-1.18-.28-1.48-.33-1.3-.2-5.98-1.2-6.3-1.33-.34-.18-.34-.35-.34-15.97V7.13h9.65z"/></defs></svg>