<svg width="30" height="30" viewBox="0 0 30 30" xmlns="http://www.w3.org/2000/svg"><title>icon-efficiency</title><path d="M15 30c8.284 0 15-6.716 15-15 0-8.284-6.716-15-15-15C6.716 0 0 6.716 0 15c0 8.284 6.716 15 15 15zm5.83-19.236c.144.16.172.337.084.53L14.424 25.2a.53.53 0 0 1-.505.3c-.032 0-.088-.008-.168-.024a.512.512 0 0 1-.307-.228.456.456 0 0 1-.054-.361l2.368-9.712-4.88 1.214a.64.64 0 0 1-.144.012.558.558 0 0 1-.373-.132.449.449 0 0 1-.156-.469l2.416-9.915a.515.515 0 0 1 .192-.277.545.545 0 0 1 .337-.108h3.942c.152 0 .28.05.385.15.104.1.156.219.156.355 0 .064-.02.136-.06.216l-2.055 5.565 4.76-1.178a.657.657 0 0 1 .143-.024c.153 0 .289.06.41.18z" fill="#FFF" fill-rule="evenodd"/></svg>