<svg width="30" height="30" viewBox="0 0 30 30" xmlns="http://www.w3.org/2000/svg"><title>icon-hire-me-dark</title><g fill="#56453B" fill-rule="evenodd"><path d="M15 30c8.284 0 15-6.716 15-15 0-8.284-6.716-15-15-15C6.716 0 0 6.716 0 15c0 8.284 6.716 15 15 15zm5.5-18.188c0 1.11-.369 2.07-1.106 2.88-.323.35-.59.662-.8.934a6.853 6.853 0 0 0-.64 1.026c-.215.412-.336.797-.365 1.155.336.2.505.494.505.88 0 .265-.09.495-.269.688a.978.978 0 0 1 .269.688c0 .372-.161.662-.484.87.093.164.14.333.14.505 0 .329-.113.583-.338.762-.226.18-.503.269-.833.269a1.733 1.733 0 0 1-.644.752A1.684 1.684 0 0 1 15 23.5c-.337 0-.648-.093-.935-.28a1.733 1.733 0 0 1-.644-.751c-.33 0-.607-.09-.833-.269-.225-.179-.338-.433-.338-.762 0-.172.047-.34.14-.505-.323-.208-.484-.498-.484-.87 0-.265.09-.495.269-.688a.978.978 0 0 1-.269-.688c0-.386.169-.68.505-.88-.029-.358-.15-.743-.365-1.155a6.853 6.853 0 0 0-.64-1.026 15.164 15.164 0 0 0-.8-.935C9.87 13.882 9.5 12.923 9.5 11.812c0-.708.16-1.37.478-1.981a4.593 4.593 0 0 1 1.257-1.526 6.24 6.24 0 0 1 1.762-.956A5.945 5.945 0 0 1 15 7c.68 0 1.348.116 2.003.35a6.24 6.24 0 0 1 1.762.955c.52.405.938.913 1.257 1.526a4.23 4.23 0 0 1 .478 1.982z"/><path d="M19.125 11.813c0-.516-.124-.996-.37-1.44a3.267 3.267 0 0 0-.967-1.09 4.978 4.978 0 0 0-1.322-.666A4.61 4.61 0 0 0 15 8.375c-.494 0-.983.08-1.466.242a4.978 4.978 0 0 0-1.322.666c-.397.283-.72.646-.966 1.09a2.914 2.914 0 0 0-.371 1.44c0 .723.243 1.367.73 1.933l.328.355c.147.157.256.275.328.354.916 1.096 1.421 2.163 1.514 3.201h2.45c.093-1.038.598-2.105 1.514-3.2.072-.08.181-.198.328-.355l.328-.355a2.88 2.88 0 0 0 .73-1.934zm-1.719 0a.33.33 0 0 1-.102.241.33.33 0 0 1-.241.102.33.33 0 0 1-.242-.102.33.33 0 0 1-.102-.242c0-.329-.194-.583-.58-.762A2.697 2.697 0 0 0 15 10.78a.33.33 0 0 1-.242-.102.33.33 0 0 1-.102-.242.33.33 0 0 1 .102-.241.33.33 0 0 1 .242-.102c.358 0 .714.057 1.069.172.354.114.666.308.934.58.269.272.403.594.403.966z"/></g></svg>