<svg width="30" height="30" viewBox="0 0 30 30" xmlns="http://www.w3.org/2000/svg"><title>icon-contact-dark</title><path d="M15 30c8.284 0 15-6.716 15-15 0-8.284-6.716-15-15-15C6.716 0 0 6.716 0 15c0 8.284 6.716 15 15 15zm5.143-17.357c0 .93-.315 1.791-.944 2.581-.63.79-1.489 1.415-2.577 1.874-1.088.458-2.272.688-3.55.688a10.09 10.09 0 0 1-1.768-.161 8.448 8.448 0 0 1-2.793 1.286c-.24.06-.529.114-.864.16h-.03a.314.314 0 0 1-.206-.08.332.332 0 0 1-.115-.21.205.205 0 0 1-.01-.066.33.33 0 0 1 .005-.065c.003-.02.01-.04.02-.06l.025-.05a.453.453 0 0 1 .035-.056.427.427 0 0 1 .04-.05.985.985 0 0 0 .045-.05 7.02 7.02 0 0 1 .271-.296c.121-.128.208-.227.262-.297l.226-.292c.097-.123.18-.252.251-.386a5.52 5.52 0 0 0 .206-.442c-.83-.482-1.483-1.075-1.959-1.778C6.238 14.19 6 13.44 6 12.643c0-.931.315-1.791.944-2.582.63-.79 1.488-1.414 2.577-1.873 1.088-.459 2.271-.688 3.55-.688 1.28 0 2.463.23 3.551.688 1.088.459 1.947 1.083 2.577 1.873.63.79.944 1.651.944 2.582zM24 15.214c0 .804-.238 1.556-.713 2.255-.476.7-1.129 1.291-1.959 1.773.067.16.136.308.206.442.07.134.154.263.251.387s.173.22.226.291c.054.07.14.17.261.296a7.02 7.02 0 0 1 .272.297l.045.05a.453.453 0 0 1 .075.105l.025.05c.01.02.017.04.02.061.004.02.005.042.005.065a.205.205 0 0 1-.01.066.372.372 0 0 1-.13.22.303.303 0 0 1-.221.07 8.445 8.445 0 0 1-.864-.16 8.448 8.448 0 0 1-2.793-1.286 10.09 10.09 0 0 1-1.767.161c-1.815 0-3.396-.442-4.741-1.326a10.585 10.585 0 0 0 3.987-.412 8.891 8.891 0 0 0 2.652-1.295c.837-.616 1.48-1.326 1.929-2.13a5.156 5.156 0 0 0 .442-4.078c.863.476 1.546 1.071 2.049 1.788.502.717.753 1.487.753 2.31z" fill="#56453B" fill-rule="evenodd"/></svg>