<svg width="30" height="30" viewBox="0 0 30 30" xmlns="http://www.w3.org/2000/svg"><title>icon-blog-light</title><path d="M15 30c8.284 0 15-6.716 15-15 0-8.284-6.716-15-15-15C6.716 0 0 6.716 0 15c0 8.284 6.716 15 15 15zm5.263-22.143c.154 0 .302.03.442.09.221.088.397.225.528.412.13.188.196.395.196.623V21.93c0 .227-.066.435-.196.622-.13.188-.307.325-.528.412-.127.054-.274.08-.442.08-.321 0-.599-.106-.833-.32L15 18.463l-4.43 4.26a1.197 1.197 0 0 1-.833.33 1.11 1.11 0 0 1-.442-.09 1.132 1.132 0 0 1-.528-.412 1.065 1.065 0 0 1-.196-.622V8.982c0-.228.066-.435.196-.623.13-.187.307-.324.528-.411.14-.06.288-.09.442-.09h10.526z" fill="#FFFDFF" fill-rule="evenodd"/></svg>