<svg xmlns="http://www.w3.org/2000/svg" viewBox="0 0 30 30"><path fill="#FFFCFF" fill-rule="evenodd" d="M15 30c8.28 0 15-6.72 15-15 0-8.28-6.72-15-15-15C6.72 0 0 6.72 0 15c0 8.28 6.72 15 15 15zm7.6-22.7c.37.43.42 1.02.16 1.8-.26.77-.7 1.46-1.3 2.07L19.5 13.1l1.94 8.42c.04.15 0 .28-.14.4l-1.55 1.15c-.05.05-.13.08-.23.08h-.08c-.12-.04-.2-.1-.26-.2l-3.36-6.14L12.7 20l.6 2.34c.03.14 0 .26-.1.37l-1.17 1.17c-.07.08-.16.12-.27.12h-.04c-.12-.03-.22-.08-.3-.17L9.2 20.7l-3.04-2.28c-.1-.06-.14-.15-.16-.28 0-.1.03-.2.1-.3l1.17-1.17c.07-.1.16-.15.28-.15h.1l2.34.65 3.1-3.12L7 10.73c-.1-.07-.18-.16-.2-.3-.02-.12 0-.23.1-.32l1.55-1.5c.1-.1.23-.12.36-.1l8.08 1.94L18.8 8.5c.6-.63 1.3-1.06 2.07-1.3.77-.27 1.37-.23 1.78.13z"/></svg>