<svg xmlns="http://www.w3.org/2000/svg" viewBox="0 0 30 30"><path fill="#FFFCFF" fill-rule="evenodd" d="M15 30c8.284 0 15-6.716 15-15 0-8.284-6.716-15-15-15C6.716 0 0 6.716 0 15c0 8.284 6.716 15 15 15zm5.143-17.357c0 .93-.315 1.79-.944 2.58-.63.792-1.49 1.416-2.58 1.875-1.09.458-2.27.688-3.55.688-.58 0-1.17-.054-1.77-.16a8.43 8.43 0 0 1-2.8 1.285c-.24.06-.53.12-.87.16H7.6a.286.286 0 0 1-.205-.08.325.325 0 0 1-.113-.21c-.007-.02-.01-.04-.01-.06s0-.04.005-.06c.002-.02.01-.04.02-.06l.024-.05.04-.05c.02-.02.03-.04.04-.05l.05-.05.04-.04.23-.25c.12-.13.21-.223.26-.293l.23-.29c.1-.124.18-.253.25-.387s.14-.285.21-.445c-.83-.48-1.48-1.073-1.96-1.776-.47-.71-.71-1.46-.71-2.26 0-.93.317-1.79.94-2.58.63-.79 1.49-1.41 2.58-1.87 1.09-.46 2.278-.69 3.55-.69 1.28 0 2.47.23 3.558.69 1.09.46 1.95 1.082 2.58 1.872.63.79.943 1.65.943 2.583zM24 15.213c0 .805-.238 1.557-.713 2.256-.476.7-1.13 1.29-1.96 1.77.068.16.137.31.207.44.07.13.154.26.25.38.098.12.174.22.227.29.06.07.15.17.27.29.12.13.2.21.23.25.01 0 .02.02.04.04l.05.05c.01.01.03.025.04.05l.04.053.03.05c.01.02.017.04.02.06l.005.065a.2.2 0 0 1-.01.07.355.355 0 0 1-.13.22.278.278 0 0 1-.22.07 7.773 7.773 0 0 1-.865-.16 8.39 8.39 0 0 1-2.79-1.284c-.604.11-1.194.16-1.77.16-1.816 0-3.397-.44-4.74-1.325a10.646 10.646 0 0 0 3.984-.41c.99-.3 1.874-.73 2.65-1.293.84-.615 1.48-1.325 1.93-2.13.45-.8.67-1.65.67-2.55 0-.516-.08-1.025-.23-1.527.86.477 1.544 1.07 2.05 1.79.5.72.75 1.49.75 2.31z"/></svg>