<svg width="30" height="30" viewBox="0 0 30 30" xmlns="http://www.w3.org/2000/svg"><title>icon-post-hustle-dark</title><path d="M15 30c8.284 0 15-6.716 15-15 0-8.284-6.716-15-15-15C6.716 0 0 6.716 0 15c0 8.284 6.716 15 15 15zm0-6.214a.601.601 0 0 1-.442-.181L8.29 17.558a3.315 3.315 0 0 1-.276-.261c-.117-.12-.303-.34-.558-.658a8.889 8.889 0 0 1-.683-.98 6.1 6.1 0 0 1-.537-1.215A4.4 4.4 0 0 1 6 13.058c0-1.473.425-2.625 1.276-3.455.85-.83 2.025-1.246 3.525-1.246.416 0 .84.072 1.271.216.432.144.834.338 1.205.583.372.244.692.473.96.688.267.214.522.442.763.683.241-.241.496-.469.763-.683.268-.215.588-.444.96-.688a5.143 5.143 0 0 1 1.205-.583 4.004 4.004 0 0 1 1.27-.216c1.5 0 2.676.415 3.526 1.246.85.83 1.276 1.982 1.276 3.455 0 1.48-.767 2.987-2.3 4.52l-6.258 6.027a.601.601 0 0 1-.442.18z" fill="#56453B" fill-rule="evenodd"/></svg>