<svg width="30" height="30" viewBox="0 0 30 30" xmlns="http://www.w3.org/2000/svg"><title>icon-travel-light</title><path d="M15 30c8.284 0 15-6.716 15-15 0-8.284-6.716-15-15-15C6.716 0 0 6.716 0 15c0 8.284 6.716 15 15 15zm7.614-22.692c.354.418.402 1.014.145 1.786a5.27 5.27 0 0 1-1.304 2.077l-1.944 1.944 1.932 8.403c.04.152-.008.285-.145.398l-1.546 1.159a.34.34 0 0 1-.229.072.268.268 0 0 1-.085-.012.334.334 0 0 1-.253-.193l-3.368-6.133-3.127 3.127.64 2.342a.368.368 0 0 1-.097.374l-1.16 1.16a.376.376 0 0 1-.277.108h-.024a.434.434 0 0 1-.29-.157L9.2 20.721l-3.042-2.282c-.088-.056-.14-.149-.157-.278a.414.414 0 0 1 .109-.302l1.159-1.17a.376.376 0 0 1 .277-.11.25.25 0 0 1 .097.013l2.342.64 3.127-3.127-6.133-3.369a.404.404 0 0 1-.205-.29.372.372 0 0 1 .108-.325l1.546-1.546c.112-.104.233-.137.362-.096l8.029 1.92 1.931-1.932a5.27 5.27 0 0 1 2.077-1.304c.773-.258 1.368-.21 1.787.145z" fill="#FFFDFF" fill-rule="evenodd"/></svg>