<svg width="30" height="30" viewBox="0 0 30 30" xmlns="http://www.w3.org/2000/svg"><title>icon-about-light</title><path d="M15 30c8.284 0 15-6.716 15-15 0-8.284-6.716-15-15-15C6.716 0 0 6.716 0 15c0 8.284 6.716 15 15 15zm8.357-17.43c0 .148-.087.308-.261.482l-3.646 3.556.864 5.023c.006.046.01.113.01.2 0 .141-.035.26-.106.357a.355.355 0 0 1-.306.146.813.813 0 0 1-.402-.12L15 19.842l-4.51 2.37a.853.853 0 0 1-.402.12c-.14 0-.246-.048-.316-.145a.592.592 0 0 1-.106-.357c0-.04.007-.107.02-.2l.864-5.023-3.656-3.556c-.167-.18-.251-.341-.251-.482 0-.247.187-.401.562-.462l5.043-.733 2.26-4.57c.127-.275.291-.412.492-.412.2 0 .365.137.492.412l2.26 4.57 5.043.733c.375.06.562.215.562.462z" fill="#FFFDFF" fill-rule="evenodd"/></svg>