<svg xmlns="http://www.w3.org/2000/svg" width="1109.333" height="1109.333" version="1" viewBox="0 0 832 832"><path d="M393.7 16.6c-.1.1-7.2.5-15.7.8-19.3.8-21.6 1-32 3.1-1.3.2-4.2.7-6.5 1-2.2.3-7.7 1.5-12.1 2.6-4.5 1.1-9 2.1-10 2.3-1.1.2-4.6 1.1-7.9 2-3.3 1-6.7 1.9-7.5 2.1-.8.2-1.5.4-1.5.5 0 .1-1 .3-2.1.5-1.2.3-3.4 1-5 1.6-1.6.7-3.2 1.2-3.5 1.1-2-.4-38.2 13.7-49.9 19.4-3 1.4-6.4 3-7.5 3.5-1.1.5-2.7 1.3-3.5 1.7-.8.5-2.4 1.3-3.5 1.9-12.2 6.1-33.4 18.8-34.7 20.7-.4.6-.8.7-.8.3 0-.8-1.7.4-7.7 5.3-.7.6-1.5 1-1.8 1-.5 0-12.2 8.6-17.5 12.9-1.4 1.2-3.8 3.1-5.4 4.3-14.2 11-34.1 30.5-54.1 53.1-3.2 3.6-16.6 20.9-19.6 25.2-1.9 2.7-3.7 5.2-4 5.5-1.1.9-15.5 23.2-19 29.5-1.8 3.3-3.6 6.2-4 6.5-.4.3-1.1 1.8-1.4 3.3-.4 1.5-1.1 2.7-1.5 2.7-.4 0-1.5 2-2.6 4.5-1 2.5-2.2 4.5-2.8 4.5-.5 0-.6.3-.3.6.4.4-.2 2.3-1.2 4.3-3.4 6.4-12.7 28.3-13.6 32.1-.1.3-.5 1.2-.8 2-1 2.2-9.6 29-10.2 31.4-.2 1.2-1.1 4.8-2 8.1-.9 3.3-2.5 10-3.6 15-1.1 4.9-2.3 9.7-2.6 10.5-.3.8-.7 2.6-.8 4-.1 1.4-.5 3.8-.9 5.5-4 17.9-5.5 95.5-2.2 116.5.4 2.3 1.4 9.5 2.1 14.5.6 3.9 1.6 9.4 2.9 16 2.3 11.2 3.9 17.7 5.1 21.5.8 2.5 1.6 5.6 1.9 7 1.6 8.6 10.3 33.4 16.5 47.2 1.1 2.6 2.1 5.1 2.1 5.4 0 .3 2.1 4.9 4.7 10.2 2.6 5.4 4.8 10.3 4.9 11 .2.8.9 2.1 1.7 3 .7 1 2.5 3.9 3.9 6.7 2.8 5.7 5.5 10.5 9.2 16.4 1.5 2.2 2.6 4.5 2.6 5.1 0 .5.4 1 1 1 .5 0 1.2 1.1 1.6 2.5.3 1.4 1 2.5 1.4 2.5.4 0 1.3 1.3 2 3 .7 1.6 1.6 3 2.1 3s.9.4.9 1c0 2 23.2 31.4 35 44.4 6.1 6.7 30 30.5 33.6 33.5 1.6 1.4 5.6 4.8 8.9 7.6 3.3 2.9 9.6 7.8 14 10.8 4.4 3.1 8.5 6 9 6.5.6.4 3.7 2.1 7 3.7 6.6 3.1 17.5 4.3 23.7 2.4 1.8-.6 3.8-1.1 4.3-1.3 3.2-.8 8.5-3.1 8.5-3.8 0-.4.7-.8 1.5-.8s1.5-.5 1.5-1c0-.6.7-1 1.5-1 1.8 0 14.5-12 14.5-13.6 0-.6.7-1.7 1.5-2.4 1.8-1.5 5.6-11.4 6.1-16 .8-7 1.7-47.1 1.8-74.2.1-15.3.5-27.8.9-27.8.5 0 .5-.5.2-1.1-1.1-1.7-1.3-5.9-.3-6.5.4-.3.6-1 .2-1.6-.7-1.2-.8-13.7-.1-14.4.3-.3.1-1.8-.3-3.4-.4-1.6-.6-3.1-.3-3.4.3-.3.5-3.2.4-6.6-.2-7.8-.2 5.4-.1-123l.1-113.6 77.1.1h77.1l-.2 29.5c-.1 16.2-.4 70.9-.6 121.5-.9 172.7-1.8 232-4 242.5-.3 1.4-.8 3.8-1 5.5-.5 2.8-2.6 9.1-4.5 14-2.6 6.4-14.6 30.1-16 31.5-.3.3-2.3 3.1-4.4 6.3-2.1 3.2-5.4 7.4-7.3 9.5-1.8 2-4.6 5-6.1 6.7-5.4 5.9-10.5 12.6-10 13.1.3.3 1.9.7 3.4.9 1.6.2 2.9.4 2.9.5 0 1.3 83.7 2 98.5.7 18.1-1.5 22.9-2.2 56.3-9.2.9-.2 2.1-.6 2.5-.9.5-.3 1.9-.7 3.3-1 1.3-.3 3.3-.7 4.4-1 3.4-.8 15.9-4.7 18-5.6 1.1-.4 6.3-2.3 11.5-4.1 5.2-1.8 12.3-4.5 15.8-6.1 3.4-1.5 6.9-2.8 7.7-2.8.8 0 1.5-.5 1.5-1 0-.6.6-1 1.3-1 2.7 0 35.1-17.1 46-24.2 3.2-2.1 6-3.8 6.2-3.8.5 0 16.4-10.9 20-13.7 4.3-3.4 4.6-3.6 8.5-6.3 1.9-1.3 3.7-2.7 4-3.1.3-.3 3.2-2.8 6.5-5.4 12.6-10.2 29.1-25.9 43.8-41.7 5.5-5.9 19-22.6 25.4-31.3 4-5.5 7.7-10.5 8.2-11.1.9-1.1 5.6-8.4 7.6-11.6.5-1 3.7-6.1 7-11.5 6.4-10.6 18.7-34.4 22.4-43.3 1.2-3 2.8-6.9 3.6-8.5 1.2-2.5 2.2-5 3-7.5.1-.3.7-1.9 1.4-3.5 2.2-5.2 4.2-10.9 4.7-13.4.3-1.3 1.1-3.6 1.9-5.2.8-1.5 1.5-3.4 1.5-4.2 0-.7.9-4.3 2.1-7.8 1.2-3.5 2.2-7.1 2.4-7.9.2-.8.8-3.5 1.5-6 1.5-5.6 1.9-7.1 3.5-15.5.5-2.2.9-4.7 1-5.5 0-.8.4-2.4.8-3.5.3-1.1.9-4 1.3-6.5 1-7.3 1.2-8.8 1.8-12.7 2.9-18.1 3.7-90.4 1.2-107.1-.3-1.8-.8-5.2-1.1-7.5-.3-2.3-1-5.8-1.5-7.7-.5-1.9-1.1-5.1-1.4-7-.3-1.9-1-5.3-1.5-7.5s-1.4-6.3-2-9c-1.3-5.8-1.8-8.1-6-23.5-1.8-6.3-3.3-12.2-3.5-13-.3-.8-2.5-6.9-5.1-13.5-2.6-6.6-4.9-12.9-5.2-14-1-3.4-17.6-35.3-24.7-47.5-8.5-14.5-8.1-13.8-14.6-23.9-3-4.6-5.9-9.2-6.5-10-.5-.9-1.2-1.8-1.5-2.1-.3-.3-1.7-2.1-3-4s-3.2-4.2-4.2-5.1c-1-.9-1.8-2-1.8-2.3 0-.9-13.7-17.5-19.1-23.1-23.1-24.2-34.6-34.6-54.9-49.8-6.3-4.8-12-9.1-12.7-9.7-.7-.5-1.6-1-2.1-1-.4 0-1.7-.8-2.8-1.8-2.8-2.5-10.2-7.2-11.4-7.2-.5 0-1-.4-1-.8 0-.5-1.8-1.7-4-2.8-2.2-1-4-2.2-4-2.7 0-.4-.4-.7-.9-.7-.4 0-4.6-2.2-9.2-4.8-16.1-9.3-36.7-18.6-63.7-28.6-5.6-2.1-29.6-9.1-35.2-10.2-1.4-.3-4.5-1.1-7-1.8s-4.8-1.4-5.3-1.5c-.4 0-1.7-.3-3-.6-1.2-.3-3.3-.7-4.7-.9-1.4-.3-5-1-8-1.6-3-.6-6.6-1.3-8-1.5-1.4-.3-3.6-.7-5-1-6.2-1.3-17.6-1.7-45.3-1.9-16.3-.1-29.8-.1-30 0zM341 164.4c3.6.3 7.6.9 9 1.2 1.4.3 3.6.7 4.9 1 1.3.3 3.4 1 4.5 1.6 1.2.6 2.1 1 2.1.9 0-.1 1.3.2 2.8.8 1.6.6 3.2 1.1 3.6 1.1.5 0 1.4.7 2.1 1.5.7.8 1.6 1.2 2.1.9.5-.3.9 0 .9.5 0 .6.5 1.1 1.1 1.1 2.3 0 13.8 9.1 20.2 16 8.8 9.5 14.5 21 17.3 35 1 4.8 1 20.3.1 27-.5 3-.9 6.3-1.1 7.2-.1 1-.5 2.1-.9 2.4-.4.4-.7 1.4-.7 2.1 0 2.1-7.2 17.3-8.1 17.3-.5 0-.9.4-.9 1 0 1.9-11.4 14.2-15.9 17-1.3.8-2.9 2-3.5 2.6-2.1 2-15.9 9.2-21.6 11.3-22.1 8.1-48.5 7.3-70.1-2.3-4.7-2-16.3-9.3-20.6-12.9-3.6-3.1-12.5-12.6-15.3-16.5-4.4-6.1-8.9-15.2-9.5-19.2-.1-.8-.6-2.9-1-4.5-1.4-5.9-1.4-27.9.1-35.1 2.9-13.6 9.6-24.7 23.2-38.3 6.4-6.4 10-9.1 15.6-11.6 7.7-3.6 20.2-8 25-8.9 1.6-.3 3-.7 3.2-.9.5-.5 24.2 0 31.4.7zm270.5 8.6c.7 1.1 1.4 7 2.1 18.5 1.1 14.9 1.6 516.8.6 517.4-.6.3-35.1.6-76.9.6l-75.8-.1.1-237.4c.2-207.4.5-253.4 1.8-262.5.7-5.4 1.9-7.5 4.5-8.1 1.4-.3 3.2-.8 4-1 1.7-.5 36.3-8.3 40.1-9 1.4-.3 3.4-.7 4.5-.9 1.1-.2 4-.8 6.5-1.4 2.5-.5 5.9-1.2 7.5-1.5 4.5-.9 7.7-1.5 11-2.3 1.7-.3 3.7-.7 4.5-.9 3.9-.5 10.1-1.7 16.5-3.1 3.9-.8 7.9-1.6 9-1.8 5.3-.9 9-1.7 20.9-4.3 14.9-3.2 18.2-3.6 19.1-2.2z"/></svg>